# xmcd
#
# Track frame offsets:
#	150
#	12253
#	22495
#	34370
#	46136
#	58355
#	69242
#	80223
#	92552
#	103572
#	119745
#	129873
#	141069
#	151472
#	163739
#	174755
#	187390
#	202378
#	214025
#	225778
#	242265
#	256141
#	266546
#	278566
#	292235
#
# Disc length: 4018 seconds
#
# Revision: 0
# Processed by: cddbd v1.5.2PL0 Copyright (c) Steve Scherf et al.
# Submitted via: EasyCDDAExtractor 15.2.1.1
#
DISCID=700fb019
DTITLE=Roy Drusky - Smooth Country
DYEAR=2017
DGENRE=Country
TTITLE0=Long Long Texas Road
TTITLE1=All My Hard Times
TTITLE2=The World Is Round
TTITLE3=Memphis Morning
TTITLE4=If The Whole World Stopped Lovin'
TTITLE5=Where The Blue And Lonely Go
TTITLE6=Anymore 
TTITLE7=A Satisfied Mind
TTITLE8=Slippin' Around
TTITLE9=Leaving on a Jet Plane
TTITLE10=My Grass is Green
TTITLE11=I can't go on loving You
TTITLE12=I must be doin' Something Right
TTITLE13=The last time I called somebody Darlin'
TTITLE14=Strangers
TTITLE15=Shadow of her mind
TTITLE16=You'd better sit down  kids
TTITLE17=Don't it make You want  to go home
TTITLE18=That rain makin'Baby of mine
TTITLE19=Early morning rain
TTITLE20=Jody and the kid
TTITLE21=I'll never tell on You
TTITLE22=Summer ,winter,Spring and Fall
TTITLE23=Fraulein
TTITLE24=Peel me a 'Nanner
EXTD=
EXTT0=
EXTT1=
EXTT2=
EXTT3=
EXTT4=
EXTT5=
EXTT6=
EXTT7=
EXTT8=
EXTT9=
EXTT10=
EXTT11=
EXTT12=
EXTT13=
EXTT14=
EXTT15=
EXTT16=
EXTT17=
EXTT18=
EXTT19=
EXTT20=
EXTT21=
EXTT22=
EXTT23=
EXTT24=
PLAYORDER=
